# xmcd
#
# Track frame offsets:
#	150
#	13653
#	27946
#	41045
#	55216
#	66534
#	80427
#	92355
#	105661
#	120709
#	134293
#	145216
#
# Disc length: 2196 seconds
#
# Revision: 1
# Processed by: cddbd v1.5.1PL0 Copyright (c) Steve Scherf et al.
# Submitted via: audiograbber 1.82.02
#
DISCID=a208920c
DTITLE=Patsy Riggir - Greatest Hits CD 3
DYEAR=1900
DGENRE=
TTITLE0=Just A Closer Walk
TTITLE1=Peace In The Valley
TTITLE2=Silver Threads
TTITLE3=When I Grow Too Old To Dream
TTITLE4=Have You Ever Been Lonely
TTITLE5=My Little Corner Of The World
TTITLE6=Love Me Tender
TTITLE7=All His Children
TTITLE8=The Old Rugged Cross
TTITLE9=Lay Down Beside Me
TTITLE10=Dear God
TTITLE11=Whispering Hope
EXTD=
EXTT0=
EXTT1=
EXTT2=
EXTT3=
EXTT4=
EXTT5=
EXTT6=
EXTT7=
EXTT8=
EXTT9=
EXTT10=
EXTT11=
PLAYORDER=
